<svg xmlns="http://www.w3.org/2000/svg" width="600" height="536.109" viewBox="0 0 600 536.109">
  <g id="illustration" transform="translate(0 -64.29)">
    <path id="Path_25" data-name="Path 25" d="M600,600h0Z" fill="#2cb4ff"/>
    <g id="Group_1" data-name="Group 1" opacity="0.47">
      <path id="Path_1" data-name="Path 1" d="M449.658,200.181l103-27.6a22.638,22.638,0,0,0,16.007-27.726h0a22.638,22.638,0,0,0-27.726-16.007L378.646,172.332a22.638,22.638,0,0,1-27.726-16.008h0A22.638,22.638,0,0,1,366.926,128.6L440.8,108.8a22.638,22.638,0,0,0,16.01-27.726h0a22.638,22.638,0,0,0-27.726-16.007L53.8,165.62a22.637,22.637,0,0,0-16.008,27.725h0A22.638,22.638,0,0,0,65.52,209.357L123.953,193.7a22.639,22.639,0,0,1,27.726,16.008h0a22.637,22.637,0,0,1-16.008,27.725l-100.02,26.8a22.639,22.639,0,0,0-16.008,27.726h0a22.638,22.638,0,0,0,27.726,16.008l62.42-16.726a22.639,22.639,0,0,1,27.726,16.008h0a22.637,22.637,0,0,1-16.008,27.725l-4.429,1.187a22.638,22.638,0,0,0-16,27.739h0A22.638,22.638,0,0,0,128.8,379.909l4.2-1.125a22.637,22.637,0,0,1,27.725,16.008h0a22.637,22.637,0,0,1-16.007,27.726l-62.19,16.663a22.638,22.638,0,0,0-16.007,27.726h0a22.638,22.638,0,0,0,27.726,16.007l113.637-30.449a22.638,22.638,0,0,1,27.726,16.008h0A22.638,22.638,0,0,1,219.6,496.2l-18.212,4.879A22.639,22.639,0,0,0,185.381,528.8h0a22.637,22.637,0,0,0,27.726,16.007l289.35-77.531a22.638,22.638,0,0,0,16.007-27.726h0a22.638,22.638,0,0,0-27.726-16.008l-8.512,2.281a22.638,22.638,0,0,1-27.726-16h0A22.638,22.638,0,0,1,470.511,382.1l55.971-15a22.638,22.638,0,0,0,16.008-27.726h0a22.638,22.638,0,0,0-27.726-16.008L435.4,344.629a22.638,22.638,0,0,1-27.726-16.008h0A22.639,22.639,0,0,1,423.683,300.9l56.2-15.057a22.637,22.637,0,0,0,16.007-27.726h0A22.637,22.637,0,0,0,468.159,242.1l-6.781,1.817a22.638,22.638,0,0,1-27.726-16.007h0a22.638,22.638,0,0,1,16.006-27.729Z" fill="#76d1ff"/>
      <rect id="Rectangle_4" data-name="Rectangle 4" width="51.443" height="45.28" rx="22.638" transform="matrix(0.966, -0.259, 0.259, 0.966, 516.487, 229.153)" fill="#76d1ff"/>
    </g>
    <g id="Group_2" data-name="Group 2" opacity="0.33">
      <rect id="Rectangle_5" data-name="Rectangle 5" width="260" height="45.478" rx="14" transform="translate(177.95 261.845)" stroke-width="1" stroke="#000" stroke-linecap="round" stroke-linejoin="round" fill="#4e4e4e"/>
      <rect id="Rectangle_6" data-name="Rectangle 6" width="260" height="45.478" rx="14" transform="translate(177.95 261.845)" fill="#4e4e4e"/>
      <path id="Path_2" data-name="Path 2" d="M191.95,261.845h232a14,14,0,0,1,14,14v20.438a8.549,8.549,0,0,1-8.549,8.549H186.5a8.549,8.549,0,0,1-8.549-8.549V275.845a14,14,0,0,1,14-14Z" fill="#4e4e4e" opacity="0.17"/>
      <rect id="Rectangle_7" data-name="Rectangle 7" width="260" height="45.478" rx="14" transform="translate(177.95 261.845)" stroke-width="4" stroke="#46505c" stroke-linecap="round" stroke-linejoin="round" fill="#4e4e4e"/>
      <rect id="Rectangle_8" data-name="Rectangle 8" width="34.941" height="224" transform="translate(419.95 266.969) rotate(90)" fill="#4e4e4e"/>
      <rect id="Rectangle_9" data-name="Rectangle 9" width="34.941" height="224" transform="translate(419.95 266.969) rotate(90)" stroke-width="1" stroke="#46505c" stroke-linecap="round" stroke-linejoin="round" fill="#4e4e4e"/>
      <rect id="Rectangle_10" data-name="Rectangle 10" width="260" height="172" rx="14" transform="translate(177.951 307.323)" fill="#4e4e4e"/>
      <rect id="Rectangle_11" data-name="Rectangle 11" width="164" height="252" rx="10" transform="translate(433.951 311.323) rotate(90)" fill="#4e4e4e" stroke="#e6f3ff" stroke-miterlimit="10" stroke-width="2"/>
      <path id="Path_3" data-name="Path 3" d="M291.9,471.5H324a4,4,0,0,1,4,4v3.82H287.9V475.5A4,4,0,0,1,291.9,471.5Z" fill="#4e4e4e"/>
      <rect id="Rectangle_12" data-name="Rectangle 12" width="260" height="172" rx="14" transform="translate(177.951 307.323)" stroke-width="4" stroke="#46505c" stroke-linecap="round" stroke-linejoin="round" fill="#4e4e4e"/>
      <rect id="Rectangle_13" data-name="Rectangle 13" width="230" height="92" rx="3" transform="translate(192.95 320.743)" fill="#4e4e4e"/>
      <rect id="Rectangle_14" data-name="Rectangle 14" width="14" height="14" rx="1" transform="translate(224.035 390.243)" stroke-width="1" stroke="#626c84" stroke-linecap="round" stroke-linejoin="round" fill="#4e4e4e"/>
      <rect id="Rectangle_15" data-name="Rectangle 15" width="14" height="14" rx="1" transform="translate(202.396 390.243)" stroke-width="1" stroke="#626c84" stroke-linecap="round" stroke-linejoin="round" fill="#4e4e4e"/>
      <rect id="Rectangle_16" data-name="Rectangle 16" width="100.554" height="14" rx="1" transform="translate(245.673 390.243)" stroke-width="1" stroke="#626c84" stroke-linecap="round" stroke-linejoin="round" fill="#4e4e4e"/>
      <rect id="Rectangle_17" data-name="Rectangle 17" width="14" height="14" rx="1" transform="translate(353.866 390.243)" stroke-width="1" stroke="#626c84" stroke-linecap="round" stroke-linejoin="round" fill="#4e4e4e"/>
      <rect id="Rectangle_18" data-name="Rectangle 18" width="10" height="6.125" rx="1" transform="translate(389.505 398.118)" stroke-width="1" stroke="#626c84" stroke-linecap="round" stroke-linejoin="round" fill="#4e4e4e"/>
      <rect id="Rectangle_19" data-name="Rectangle 19" width="10" height="6.125" rx="1" transform="translate(389.505 390.243)" stroke-width="1" stroke="#626c84" stroke-linecap="round" stroke-linejoin="round" fill="#4e4e4e"/>
      <rect id="Rectangle_20" data-name="Rectangle 20" width="10" height="6.125" rx="1" transform="translate(403.505 398.118)" stroke-width="1" stroke="#626c84" stroke-linecap="round" stroke-linejoin="round" fill="#4e4e4e"/>
      <rect id="Rectangle_21" data-name="Rectangle 21" width="10" height="6.125" rx="1" transform="translate(375.505 398.118)" stroke-width="1" stroke="#626c84" stroke-linecap="round" stroke-linejoin="round" fill="#4e4e4e"/>
      <rect id="Rectangle_22" data-name="Rectangle 22" width="33.639" height="14" rx="1" transform="translate(202.396 370.323)" stroke-width="1" stroke="#626c84" stroke-linecap="round" stroke-linejoin="round" fill="#4e4e4e"/>
      <rect id="Rectangle_23" data-name="Rectangle 23" width="14" height="14" rx="1" transform="translate(243.854 370.323)" stroke-width="1" stroke="#626c84" stroke-linecap="round" stroke-linejoin="round" fill="#4e4e4e"/>
      <rect id="Rectangle_24" data-name="Rectangle 24" width="14" height="14" rx="1" transform="translate(265.493 370.323)" stroke-width="1" stroke="#626c84" stroke-linecap="round" stroke-linejoin="round" fill="#4e4e4e"/>
      <rect id="Rectangle_25" data-name="Rectangle 25" width="14" height="14" rx="1" transform="translate(287.131 370.323)" stroke-width="1" stroke="#626c84" stroke-linecap="round" stroke-linejoin="round" fill="#4e4e4e"/>
      <rect id="Rectangle_26" data-name="Rectangle 26" width="14" height="14" rx="1" transform="translate(308.77 370.323)" stroke-width="1" stroke="#626c84" stroke-linecap="round" stroke-linejoin="round" fill="#4e4e4e"/>
      <rect id="Rectangle_27" data-name="Rectangle 27" width="14" height="14" rx="1" transform="translate(330.408 370.323)" stroke-width="1" stroke="#626c84" stroke-linecap="round" stroke-linejoin="round" fill="#4e4e4e"/>
      <rect id="Rectangle_28" data-name="Rectangle 28" width="14" height="14" rx="1" transform="translate(352.047 370.323)" stroke-width="1" stroke="#626c84" stroke-linecap="round" stroke-linejoin="round" fill="#4e4e4e"/>
      <rect id="Rectangle_29" data-name="Rectangle 29" width="38" height="14" rx="1" transform="translate(375.505 370.323)" stroke-width="1" stroke="#626c84" stroke-linecap="round" stroke-linejoin="round" fill="#4e4e4e"/>
      <rect id="Rectangle_30" data-name="Rectangle 30" width="14" height="14" rx="1" transform="translate(236.035 349.843)" stroke-width="1" stroke="#626c84" stroke-linecap="round" stroke-linejoin="round" fill="#4e4e4e"/>
      <rect id="Rectangle_31" data-name="Rectangle 31" width="26" height="14" rx="1" transform="translate(202.396 349.843)" stroke-width="1" stroke="#626c84" stroke-linecap="round" stroke-linejoin="round" fill="#4e4e4e"/>
      <rect id="Rectangle_32" data-name="Rectangle 32" width="14" height="14" rx="1" transform="translate(257.673 349.843)" stroke-width="1" stroke="#626c84" stroke-linecap="round" stroke-linejoin="round" fill="#4e4e4e"/>
      <rect id="Rectangle_33" data-name="Rectangle 33" width="14" height="14" rx="1" transform="translate(279.312 349.843)" stroke-width="1" stroke="#626c84" stroke-linecap="round" stroke-linejoin="round" fill="#4e4e4e"/>
      <rect id="Rectangle_34" data-name="Rectangle 34" width="14" height="14" rx="1" transform="translate(300.95 349.843)" stroke-width="1" stroke="#626c84" stroke-linecap="round" stroke-linejoin="round" fill="#4e4e4e"/>
      <rect id="Rectangle_35" data-name="Rectangle 35" width="14" height="14" rx="1" transform="translate(322.589 349.843)" stroke-width="1" stroke="#626c84" stroke-linecap="round" stroke-linejoin="round" fill="#4e4e4e"/>
      <rect id="Rectangle_36" data-name="Rectangle 36" width="14" height="14" rx="1" transform="translate(344.228 349.843)" stroke-width="1" stroke="#626c84" stroke-linecap="round" stroke-linejoin="round" fill="#4e4e4e"/>
      <rect id="Rectangle_37" data-name="Rectangle 37" width="14" height="14" rx="1" transform="translate(365.866 349.843)" stroke-width="1" stroke="#626c84" stroke-linecap="round" stroke-linejoin="round" fill="#4e4e4e"/>
      <rect id="Rectangle_38" data-name="Rectangle 38" width="26" height="14" rx="1" transform="translate(387.505 349.843)" stroke-width="1" stroke="#626c84" stroke-linecap="round" stroke-linejoin="round" fill="#4e4e4e"/>
      <rect id="Rectangle_39" data-name="Rectangle 39" width="14" height="14" rx="1" transform="translate(224.297 330.243)" stroke-width="1" stroke="#626c84" stroke-linecap="round" stroke-linejoin="round" fill="#4e4e4e"/>
      <rect id="Rectangle_40" data-name="Rectangle 40" width="14" height="14" rx="1" transform="translate(202.396 330.243)" stroke-width="1" stroke="#626c84" stroke-linecap="round" stroke-linejoin="round" fill="#4e4e4e"/>
      <rect id="Rectangle_41" data-name="Rectangle 41" width="14" height="14" rx="1" transform="translate(246.198 330.243)" stroke-width="1" stroke="#626c84" stroke-linecap="round" stroke-linejoin="round" fill="#4e4e4e"/>
      <rect id="Rectangle_42" data-name="Rectangle 42" width="14" height="14" rx="1" transform="translate(268.099 330.243)" stroke-width="1" stroke="#626c84" stroke-linecap="round" stroke-linejoin="round" fill="#4e4e4e"/>
      <rect id="Rectangle_43" data-name="Rectangle 43" width="14" height="14" rx="1" transform="translate(290 330.243)" stroke-width="1" stroke="#626c84" stroke-linecap="round" stroke-linejoin="round" fill="#4e4e4e"/>
      <rect id="Rectangle_44" data-name="Rectangle 44" width="14" height="14" rx="1" transform="translate(311.901 330.243)" stroke-width="1" stroke="#626c84" stroke-linecap="round" stroke-linejoin="round" fill="#4e4e4e"/>
      <rect id="Rectangle_45" data-name="Rectangle 45" width="14" height="14" rx="1" transform="translate(333.802 330.243)" stroke-width="1" stroke="#626c84" stroke-linecap="round" stroke-linejoin="round" fill="#4e4e4e"/>
      <rect id="Rectangle_46" data-name="Rectangle 46" width="14" height="14" rx="1" transform="translate(355.703 330.243)" stroke-width="1" stroke="#626c84" stroke-linecap="round" stroke-linejoin="round" fill="#4e4e4e"/>
      <rect id="Rectangle_47" data-name="Rectangle 47" width="14" height="14" rx="1" transform="translate(377.604 330.243)" stroke-width="1" stroke="#626c84" stroke-linecap="round" stroke-linejoin="round" fill="#4e4e4e"/>
      <rect id="Rectangle_48" data-name="Rectangle 48" width="14" height="14" rx="1" transform="translate(399.505 330.243)" stroke-width="1" stroke="#626c84" stroke-linecap="round" stroke-linejoin="round" fill="#4e4e4e"/>
      <rect id="Rectangle_49" data-name="Rectangle 49" width="14" height="14" rx="1" transform="translate(224.035 390.243)" fill="#4e4e4e"/>
      <rect id="Rectangle_50" data-name="Rectangle 50" width="14" height="14" rx="1" transform="translate(202.396 390.243)" fill="#4e4e4e"/>
      <rect id="Rectangle_51" data-name="Rectangle 51" width="100.554" height="14" rx="1" transform="translate(245.673 390.243)" fill="#4e4e4e"/>
      <rect id="Rectangle_52" data-name="Rectangle 52" width="14" height="14" rx="1" transform="translate(353.866 390.243)" fill="#4e4e4e"/>
      <rect id="Rectangle_53" data-name="Rectangle 53" width="10" height="6.125" rx="1" transform="translate(389.505 398.118)" fill="#4e4e4e"/>
      <rect id="Rectangle_54" data-name="Rectangle 54" width="10" height="6.125" rx="1" transform="translate(389.505 390.243)" fill="#4e4e4e"/>
      <rect id="Rectangle_55" data-name="Rectangle 55" width="10" height="6.125" rx="1" transform="translate(403.505 398.118)" fill="#4e4e4e"/>
      <rect id="Rectangle_56" data-name="Rectangle 56" width="10" height="6.125" rx="1" transform="translate(375.505 398.118)" fill="#4e4e4e"/>
      <rect id="Rectangle_57" data-name="Rectangle 57" width="33.639" height="14" rx="1" transform="translate(202.396 370.323)" fill="#4e4e4e"/>
      <rect id="Rectangle_58" data-name="Rectangle 58" width="14" height="14" rx="1" transform="translate(243.854 370.323)" fill="#4e4e4e"/>
      <rect id="Rectangle_59" data-name="Rectangle 59" width="14" height="14" rx="1" transform="translate(265.493 370.323)" fill="#4e4e4e"/>
      <rect id="Rectangle_60" data-name="Rectangle 60" width="14" height="14" rx="1" transform="translate(287.131 370.323)" fill="#4e4e4e"/>
      <rect id="Rectangle_61" data-name="Rectangle 61" width="14" height="14" rx="1" transform="translate(308.77 370.323)" fill="#4e4e4e"/>
      <rect id="Rectangle_62" data-name="Rectangle 62" width="14" height="14" rx="1" transform="translate(330.408 370.323)" fill="#4e4e4e"/>
      <rect id="Rectangle_63" data-name="Rectangle 63" width="14" height="14" rx="1" transform="translate(352.047 370.323)" fill="#4e4e4e"/>
      <rect id="Rectangle_64" data-name="Rectangle 64" width="38" height="14" rx="1" transform="translate(375.505 370.323)" fill="#4e4e4e"/>
      <rect id="Rectangle_65" data-name="Rectangle 65" width="14" height="14" rx="1" transform="translate(236.035 349.843)" fill="#4e4e4e"/>
      <rect id="Rectangle_66" data-name="Rectangle 66" width="26" height="14" rx="1" transform="translate(202.396 349.843)" fill="#4e4e4e"/>
      <rect id="Rectangle_67" data-name="Rectangle 67" width="14" height="14" rx="1" transform="translate(257.673 349.843)" fill="#4e4e4e"/>
      <rect id="Rectangle_68" data-name="Rectangle 68" width="14" height="14" rx="1" transform="translate(279.312 349.843)" fill="#4e4e4e"/>
      <rect id="Rectangle_69" data-name="Rectangle 69" width="14" height="14" rx="1" transform="translate(300.95 349.843)" fill="#4e4e4e"/>
      <rect id="Rectangle_70" data-name="Rectangle 70" width="14" height="14" rx="1" transform="translate(322.589 349.843)" fill="#4e4e4e"/>
      <rect id="Rectangle_71" data-name="Rectangle 71" width="14" height="14" rx="1" transform="translate(344.228 349.843)" fill="#4e4e4e"/>
      <rect id="Rectangle_72" data-name="Rectangle 72" width="14" height="14" rx="1" transform="translate(365.866 349.843)" fill="#4e4e4e"/>
      <rect id="Rectangle_73" data-name="Rectangle 73" width="26" height="14" rx="1" transform="translate(387.505 349.843)" fill="#4e4e4e"/>
      <rect id="Rectangle_74" data-name="Rectangle 74" width="14" height="14" rx="1" transform="translate(224.297 330.243)" fill="#4e4e4e"/>
      <rect id="Rectangle_75" data-name="Rectangle 75" width="14" height="14" rx="1" transform="translate(202.396 330.243)" fill="#4e4e4e"/>
      <rect id="Rectangle_76" data-name="Rectangle 76" width="14" height="14" rx="1" transform="translate(246.198 330.243)" fill="#4e4e4e"/>
      <rect id="Rectangle_77" data-name="Rectangle 77" width="14" height="14" rx="1" transform="translate(268.099 330.243)" fill="#4e4e4e"/>
      <rect id="Rectangle_78" data-name="Rectangle 78" width="14" height="14" rx="1" transform="translate(290 330.243)" fill="#4e4e4e"/>
      <rect id="Rectangle_79" data-name="Rectangle 79" width="14" height="14" rx="1" transform="translate(311.901 330.243)" fill="#4e4e4e"/>
      <rect id="Rectangle_80" data-name="Rectangle 80" width="14" height="14" rx="1" transform="translate(333.802 330.243)" fill="#4e4e4e"/>
      <rect id="Rectangle_81" data-name="Rectangle 81" width="14" height="14" rx="1" transform="translate(355.703 330.243)" fill="#4e4e4e"/>
      <rect id="Rectangle_82" data-name="Rectangle 82" width="14" height="14" rx="1" transform="translate(377.604 330.243)" fill="#4e4e4e"/>
      <rect id="Rectangle_83" data-name="Rectangle 83" width="14" height="14" rx="1" transform="translate(399.505 330.243)" fill="#4e4e4e"/>
      <path id="Path_4" data-name="Path 4" d="M222.95,298.339h170v13.446a4,4,0,0,1-4,4h-162a4,4,0,0,1-4-4V298.339Z" fill="#4e4e4e"/>
      <path id="Path_5" data-name="Path 5" d="M388.95,311.784h-162a4,4,0,0,1-4-4v4a4,4,0,0,0,4,4h162a4,4,0,0,0,4-4v-4A4,4,0,0,1,388.95,311.784Z" fill="#4e4e4e" opacity="0.25"/>
      <path id="Path_6" data-name="Path 6" d="M222.95,298.339h170v13.446a4,4,0,0,1-4,4h-162a4,4,0,0,1-4-4V298.339Z" fill="#4e4e4e" stroke="#46505c" stroke-linecap="round" stroke-linejoin="round" stroke-width="2"/>
      <rect id="Rectangle_84" data-name="Rectangle 84" width="74" height="51" rx="2" transform="translate(270.951 417.743)" fill="#4e4e4e"/>
      <rect id="Rectangle_85" data-name="Rectangle 85" width="74" height="51" rx="2" transform="translate(270.951 417.743)" stroke-width="1" stroke="#626c84" stroke-linecap="round" stroke-linejoin="round" fill="#4e4e4e"/>
    </g>
    <g id="Group_3" data-name="Group 3" opacity="0.33">
      <path id="Path_7" data-name="Path 7" d="M90.15,401.363h13.466a.692.692,0,0,1,.692.692v9.616a.692.692,0,0,1-.692.692H90.15a5,5,0,0,1-5-5v-1a5,5,0,0,1,5-5Z" transform="translate(-292.917 251.165) rotate(-55.022)" fill="#4e4e4e" stroke="#46505c" stroke-linecap="round" stroke-linejoin="round" stroke-width="4"/>
      <path id="Path_8" data-name="Path 8" d="M90.15,401.363h13.466a.692.692,0,0,1,.692.692v9.616a.692.692,0,0,1-.692.692H90.15a5,5,0,0,1-5-5v-1a5,5,0,0,1,5-5Z" transform="translate(-292.917 251.165) rotate(-55.022)" fill="#4e4e4e" stroke="#46505c" stroke-linecap="round" stroke-linejoin="round" stroke-width="4"/>
      <circle id="Ellipse_1" data-name="Ellipse 1" cx="32.576" cy="32.576" r="32.576" transform="translate(84.508 342.346)" stroke-width="4" stroke="#46505c" stroke-linecap="round" stroke-linejoin="round" fill="#4e4e4e"/>
      <circle id="Ellipse_2" data-name="Ellipse 2" cx="32.576" cy="32.576" r="32.576" transform="translate(84.508 342.346)" stroke-width="4" stroke="#46505c" stroke-linecap="round" stroke-linejoin="round" fill="#4e4e4e"/>
      <circle id="Ellipse_3" data-name="Ellipse 3" cx="25.355" cy="25.355" r="25.355" transform="translate(91.729 349.567)" stroke-width="4" stroke="#46505c" stroke-linecap="round" stroke-linejoin="round" fill="#4e4e4e"/>
      <circle id="Ellipse_4" data-name="Ellipse 4" cx="25.355" cy="25.355" r="25.355" transform="translate(91.729 349.567)" stroke-width="4" stroke="#46505c" stroke-linecap="round" stroke-linejoin="round" fill="#4e4e4e"/>
      <path id="Path_9" data-name="Path 9" d="M100.509,369.659c.339-.764.706-1.513,1.08-2.246,1.7-3.332,3.733-6.786,6.978-8.827,2.755-1.734,6.608-2.413,9.594-.879,2.59,1.33,4.151,4.065,6.514,5.767a42.739,42.739,0,0,0,4.954,2.6A7.44,7.44,0,0,1,133.442,370c.8,2.444-.519,5.052-.532,7.624a7.58,7.58,0,0,0,1.137,4.017,3.909,3.909,0,0,1,.875,1.979,2.6,2.6,0,0,1-1.715,2.06c-2.626,1.241-5.693.793-8.581.481s-6.086-.378-8.369,1.418a24.332,24.332,0,0,0-2.589,2.792,4.072,4.072,0,0,1-6.25.637,26.771,26.771,0,0,1-5.326-6.041,16.421,16.421,0,0,1-3.173-6.557C98.4,375.435,99.265,372.458,100.509,369.659Z" fill="#4e4e4e" stroke="#46505c" stroke-linecap="round" stroke-linejoin="round" stroke-width="4" opacity="0.33"/>
      <circle id="Ellipse_5" data-name="Ellipse 5" cx="1.574" cy="1.574" r="1.574" transform="translate(120.638 390.969)" opacity="0.33" stroke="#46505c" stroke-linecap="round" stroke-linejoin="round" stroke-width="4" fill="#4e4e4e"/>
      <circle id="Ellipse_6" data-name="Ellipse 6" cx="1.09" cy="1.09" r="1.09" transform="translate(117.025 392.034)" opacity="0.33" stroke="#46505c" stroke-linecap="round" stroke-linejoin="round" stroke-width="4" fill="#4e4e4e"/>
      <circle id="Ellipse_7" data-name="Ellipse 7" cx="0.988" cy="0.988" r="0.988" transform="translate(124.943 390.091)" opacity="0.33" stroke="#46505c" stroke-linecap="round" stroke-linejoin="round" stroke-width="4" fill="#4e4e4e"/>
      <circle id="Ellipse_8" data-name="Ellipse 8" cx="0.708" cy="0.708" r="0.708" transform="translate(113.959 392.824)" opacity="0.33" stroke="#46505c" stroke-linecap="round" stroke-linejoin="round" stroke-width="4" fill="#4e4e4e"/>
      <circle id="Ellipse_9" data-name="Ellipse 9" cx="0.432" cy="0.432" r="0.432" transform="translate(128.62 389.603)" opacity="0.33" stroke="#46505c" stroke-linecap="round" stroke-linejoin="round" stroke-width="4" fill="#4e4e4e"/>
      <circle id="Ellipse_10" data-name="Ellipse 10" cx="1.014" cy="1.014" r="1.014" transform="translate(96.395 367.917)" opacity="0.33" stroke="#46505c" stroke-linecap="round" stroke-linejoin="round" stroke-width="4" fill="#4e4e4e"/>
      <circle id="Ellipse_11" data-name="Ellipse 11" cx="0.954" cy="0.954" r="0.954" transform="translate(124.06 356.179)" opacity="0.33" stroke="#46505c" stroke-linecap="round" stroke-linejoin="round" stroke-width="4" fill="#4e4e4e"/>
      <circle id="Ellipse_12" data-name="Ellipse 12" cx="0.864" cy="0.864" r="0.864" transform="translate(130.351 360.969)" opacity="0.33" stroke="#46505c" stroke-linecap="round" stroke-linejoin="round" stroke-width="4" fill="#4e4e4e"/>
      <circle id="Ellipse_13" data-name="Ellipse 13" cx="0.378" cy="0.378" r="0.378" transform="translate(131.546 363.903)" opacity="0.33" stroke="#46505c" stroke-linecap="round" stroke-linejoin="round" stroke-width="4" fill="#4e4e4e"/>
    </g>
    <path id="Path_10" data-name="Path 10" d="M82.928,393.186H96.393a.692.692,0,0,1,.692.692v9.616a.692.692,0,0,1-.692.692H82.928a5,5,0,0,1-5-5v-1A5,5,0,0,1,82.928,393.186Z" transform="matrix(0.573, -0.819, 0.819, 0.573, -289.299, 241.76)" fill="#fff" stroke="#e6f3ff" stroke-miterlimit="10" stroke-width="2"/>
    <path id="Path_11" data-name="Path 11" d="M89.06,388.081a.692.692,0,0,0-.963.171l-3.477,4.966a36.619,36.619,0,0,0,4.269,3.494,37.025,37.025,0,0,0,4.742,2.815l3.477-4.968a.69.69,0,0,0-.17-.963Z" fill="#4e4e4e" stroke="#46505c" stroke-linecap="round" stroke-linejoin="round" stroke-width="4" opacity="0.18"/>
    <path id="Path_12" data-name="Path 12" d="M82.928,393.186H96.393a.692.692,0,0,1,.692.692v9.616a.692.692,0,0,1-.692.692H82.928a5,5,0,0,1-5-5v-1A5,5,0,0,1,82.928,393.186Z" transform="matrix(0.573, -0.819, 0.819, 0.573, -289.299, 241.76)" fill="none" stroke="#46505c" stroke-linecap="round" stroke-linejoin="round" stroke-width="4"/>
    <circle id="Ellipse_14" data-name="Ellipse 14" cx="32.576" cy="32.576" r="32.576" transform="translate(77.286 334.17)" fill="#fff" stroke="#e6f3ff" stroke-miterlimit="10" stroke-width="2"/>
    <circle id="Ellipse_15" data-name="Ellipse 15" cx="32.576" cy="32.576" r="32.576" transform="translate(77.286 334.17)" stroke-width="4" stroke="#46505c" stroke-linecap="round" stroke-linejoin="round" fill="none"/>
    <circle id="Ellipse_16" data-name="Ellipse 16" cx="25.355" cy="25.355" r="25.355" transform="translate(84.507 341.391)" fill="#845b5b"/>
    <circle id="Ellipse_17" data-name="Ellipse 17" cx="25.355" cy="25.355" r="25.355" transform="translate(84.507 341.391)" stroke-width="2" stroke="#46505c" stroke-linecap="round" stroke-linejoin="round" fill="none"/>
    <path id="Path_13" data-name="Path 13" d="M93.287,361.482c.339-.763.706-1.513,1.08-2.246,1.7-3.331,3.734-6.785,6.978-8.827,2.756-1.734,6.608-2.412,9.594-.879,2.59,1.33,4.151,4.066,6.514,5.767a42.745,42.745,0,0,0,4.955,2.6,7.447,7.447,0,0,1,3.813,3.918c.8,2.445-.519,5.053-.533,7.624a7.58,7.58,0,0,0,1.137,4.017,3.91,3.91,0,0,1,.876,1.979,2.6,2.6,0,0,1-1.715,2.061c-2.627,1.24-5.694.793-8.582.48s-6.085-.377-8.369,1.418a24.41,24.41,0,0,0-2.589,2.792,4.073,4.073,0,0,1-6.25.638,26.8,26.8,0,0,1-5.326-6.042,16.409,16.409,0,0,1-3.17-6.552C91.173,367.258,92.044,364.281,93.287,361.482Z" fill="#845b5b" opacity="0.33"/>
    <circle id="Ellipse_18" data-name="Ellipse 18" cx="1.574" cy="1.574" r="1.574" transform="translate(113.416 382.792)" fill="#845b5b" opacity="0.33"/>
    <circle id="Ellipse_19" data-name="Ellipse 19" cx="1.09" cy="1.09" r="1.09" transform="translate(109.803 383.857)" fill="#845b5b" opacity="0.33"/>
    <circle id="Ellipse_20" data-name="Ellipse 20" cx="0.988" cy="0.988" r="0.988" transform="translate(117.721 381.915)" fill="#845b5b" opacity="0.33"/>
    <circle id="Ellipse_21" data-name="Ellipse 21" cx="0.708" cy="0.708" r="0.708" transform="translate(106.737 384.648)" fill="#845b5b" opacity="0.33"/>
    <circle id="Ellipse_22" data-name="Ellipse 22" cx="0.432" cy="0.432" r="0.432" transform="translate(121.398 381.427)" fill="#845b5b" opacity="0.33"/>
    <circle id="Ellipse_23" data-name="Ellipse 23" cx="1.014" cy="1.014" r="1.014" transform="translate(89.173 359.741)" fill="#845b5b" opacity="0.33"/>
    <circle id="Ellipse_24" data-name="Ellipse 24" cx="0.954" cy="0.954" r="0.954" transform="translate(116.838 348.002)" fill="#845b5b" opacity="0.33"/>
    <circle id="Ellipse_25" data-name="Ellipse 25" cx="0.864" cy="0.864" r="0.864" transform="translate(123.129 352.792)" fill="#845b5b" opacity="0.33"/>
    <circle id="Ellipse_26" data-name="Ellipse 26" cx="0.378" cy="0.378" r="0.378" transform="translate(124.324 355.726)" fill="#845b5b" opacity="0.33"/>
    <circle id="Ellipse_27" data-name="Ellipse 27" cx="2" cy="2" r="2" transform="translate(110.084 366.84)" fill="#845b5b"/>
    <circle id="Ellipse_28" data-name="Ellipse 28" cx="3.5" cy="3.5" r="3.5" transform="translate(102.07 357.659)" fill="#845b5b"/>
    <rect id="Rectangle_86" data-name="Rectangle 86" width="260" height="164" rx="14" transform="translate(170 133.904)" stroke-width="1" stroke="#000" stroke-linecap="round" stroke-linejoin="round" fill="none"/>
    <rect id="Rectangle_87" data-name="Rectangle 87" width="260" height="164" rx="14" transform="translate(170 133.904)" fill="#626c84"/>
    <rect id="Rectangle_88" data-name="Rectangle 88" width="260" height="164" rx="14" transform="translate(170 133.904)" fill="#626c84"/>
    <rect id="Rectangle_89" data-name="Rectangle 89" width="260" height="155.016" rx="14" transform="translate(170 133.904)" fill="#626c84" opacity="0.17"/>
    <path id="Path_14" data-name="Path 14" d="M184,137.9H416a14,14,0,0,1,14,14v132h0v-136a14,14,0,0,0-14-14H184a14,14,0,0,0-14,14v4a14,14,0,0,1,14-14Z" fill="#fff" opacity="0.1"/>
    <g id="Group_4" data-name="Group 4" opacity="0.1">
      <path id="Path_15" data-name="Path 15" d="M249.227,297.9H265.3l119.153-164H368.38Z" fill="#fff"/>
      <path id="Path_16" data-name="Path 16" d="M274.566,297.9h4.944l119.154-164h-4.945Z" fill="#fff"/>
    </g>
    <rect id="Rectangle_90" data-name="Rectangle 90" width="260" height="164" rx="14" transform="translate(170 133.904)" stroke-width="4" stroke="#46505c" stroke-linecap="round" stroke-linejoin="round" fill="none"/>
    <rect id="Rectangle_91" data-name="Rectangle 91" width="126" height="224" transform="translate(412 152.384) rotate(90)" fill="#fd848e"/>
    <g id="Group_5" data-name="Group 5" opacity="0.06">
      <path id="Path_17" data-name="Path 17" d="M264.409,278.384h16.069l91.544-126H355.953Z" fill="#fff"/>
      <path id="Path_18" data-name="Path 18" d="M289.748,278.384h4.945l91.544-126h-4.944Z" fill="#fff"/>
    </g>
    <rect id="Rectangle_92" data-name="Rectangle 92" width="126" height="224" transform="translate(412 152.384) rotate(90)" stroke-width="1" stroke="#46505c" stroke-linecap="round" stroke-linejoin="round" fill="none"/>
    <rect id="Rectangle_93" data-name="Rectangle 93" width="260" height="172" rx="14" transform="translate(170 297.904)" fill="#e6f3ff"/>
    <rect id="Rectangle_94" data-name="Rectangle 94" width="164" height="252" rx="10" transform="translate(426 301.904) rotate(90)" fill="#fff" stroke="#e6f3ff" stroke-miterlimit="10" stroke-width="2"/>
    <path id="Path_19" data-name="Path 19" d="M283.949,462.084h32.1a4,4,0,0,1,4,4v3.82h-40.1v-3.82A4,4,0,0,1,283.949,462.084Z" fill="#e6f3ff"/>
    <rect id="Rectangle_95" data-name="Rectangle 95" width="260" height="172" rx="14" transform="translate(170 297.904)" stroke-width="4" stroke="#46505c" stroke-linecap="round" stroke-linejoin="round" fill="none"/>
    <rect id="Rectangle_96" data-name="Rectangle 96" width="230" height="92" rx="3" transform="translate(185 311.323)" fill="#e6f3ff"/>
    <rect id="Rectangle_97" data-name="Rectangle 97" width="14" height="14" rx="1" transform="translate(216.084 380.823)" stroke-width="1" stroke="#626c84" stroke-linecap="round" stroke-linejoin="round" fill="none"/>
    <rect id="Rectangle_98" data-name="Rectangle 98" width="14" height="14" rx="1" transform="translate(194.446 380.823)" stroke-width="1" stroke="#626c84" stroke-linecap="round" stroke-linejoin="round" fill="none"/>
    <rect id="Rectangle_99" data-name="Rectangle 99" width="100.554" height="14" rx="1" transform="translate(237.723 380.823)" stroke-width="1" stroke="#626c84" stroke-linecap="round" stroke-linejoin="round" fill="none"/>
    <rect id="Rectangle_100" data-name="Rectangle 100" width="14" height="14" rx="1" transform="translate(345.916 380.823)" stroke-width="1" stroke="#626c84" stroke-linecap="round" stroke-linejoin="round" fill="none"/>
    <rect id="Rectangle_101" data-name="Rectangle 101" width="10" height="6.125" rx="1" transform="translate(381.554 388.698)" stroke-width="1" stroke="#626c84" stroke-linecap="round" stroke-linejoin="round" fill="none"/>
    <rect id="Rectangle_102" data-name="Rectangle 102" width="10" height="6.125" rx="1" transform="translate(381.554 380.823)" stroke-width="1" stroke="#626c84" stroke-linecap="round" stroke-linejoin="round" fill="none"/>
    <rect id="Rectangle_103" data-name="Rectangle 103" width="10" height="6.125" rx="1" transform="translate(395.554 388.698)" stroke-width="1" stroke="#626c84" stroke-linecap="round" stroke-linejoin="round" fill="none"/>
    <rect id="Rectangle_104" data-name="Rectangle 104" width="10" height="6.125" rx="1" transform="translate(367.554 388.698)" stroke-width="1" stroke="#626c84" stroke-linecap="round" stroke-linejoin="round" fill="none"/>
    <rect id="Rectangle_105" data-name="Rectangle 105" width="33.639" height="14" rx="1" transform="translate(194.446 360.904)" stroke-width="1" stroke="#626c84" stroke-linecap="round" stroke-linejoin="round" fill="none"/>
    <rect id="Rectangle_106" data-name="Rectangle 106" width="14" height="14" rx="1" transform="translate(235.904 360.904)" stroke-width="1" stroke="#626c84" stroke-linecap="round" stroke-linejoin="round" fill="none"/>
    <rect id="Rectangle_107" data-name="Rectangle 107" width="14" height="14" rx="1" transform="translate(257.542 360.904)" stroke-width="1" stroke="#626c84" stroke-linecap="round" stroke-linejoin="round" fill="none"/>
    <rect id="Rectangle_108" data-name="Rectangle 108" width="14" height="14" rx="1" transform="translate(279.181 360.904)" stroke-width="1" stroke="#626c84" stroke-linecap="round" stroke-linejoin="round" fill="none"/>
    <rect id="Rectangle_109" data-name="Rectangle 109" width="14" height="14" rx="1" transform="translate(300.819 360.904)" stroke-width="1" stroke="#626c84" stroke-linecap="round" stroke-linejoin="round" fill="none"/>
    <rect id="Rectangle_110" data-name="Rectangle 110" width="14" height="14" rx="1" transform="translate(322.458 360.904)" stroke-width="1" stroke="#626c84" stroke-linecap="round" stroke-linejoin="round" fill="none"/>
    <rect id="Rectangle_111" data-name="Rectangle 111" width="14" height="14" rx="1" transform="translate(344.096 360.904)" stroke-width="1" stroke="#626c84" stroke-linecap="round" stroke-linejoin="round" fill="none"/>
    <rect id="Rectangle_112" data-name="Rectangle 112" width="38" height="14" rx="1" transform="translate(367.554 360.904)" stroke-width="1" stroke="#626c84" stroke-linecap="round" stroke-linejoin="round" fill="none"/>
    <rect id="Rectangle_113" data-name="Rectangle 113" width="14" height="14" rx="1" transform="translate(228.084 340.424)" stroke-width="1" stroke="#626c84" stroke-linecap="round" stroke-linejoin="round" fill="none"/>
    <rect id="Rectangle_114" data-name="Rectangle 114" width="26" height="14" rx="1" transform="translate(194.446 340.424)" stroke-width="1" stroke="#626c84" stroke-linecap="round" stroke-linejoin="round" fill="none"/>
    <rect id="Rectangle_115" data-name="Rectangle 115" width="14" height="14" rx="1" transform="translate(249.723 340.424)" stroke-width="1" stroke="#626c84" stroke-linecap="round" stroke-linejoin="round" fill="none"/>
    <rect id="Rectangle_116" data-name="Rectangle 116" width="14" height="14" rx="1" transform="translate(271.361 340.424)" stroke-width="1" stroke="#626c84" stroke-linecap="round" stroke-linejoin="round" fill="none"/>
    <rect id="Rectangle_117" data-name="Rectangle 117" width="14" height="14" rx="1" transform="translate(293 340.424)" stroke-width="1" stroke="#626c84" stroke-linecap="round" stroke-linejoin="round" fill="none"/>
    <rect id="Rectangle_118" data-name="Rectangle 118" width="14" height="14" rx="1" transform="translate(314.639 340.424)" stroke-width="1" stroke="#626c84" stroke-linecap="round" stroke-linejoin="round" fill="none"/>
    <rect id="Rectangle_119" data-name="Rectangle 119" width="14" height="14" rx="1" transform="translate(336.277 340.424)" stroke-width="1" stroke="#626c84" stroke-linecap="round" stroke-linejoin="round" fill="none"/>
    <rect id="Rectangle_120" data-name="Rectangle 120" width="14" height="14" rx="1" transform="translate(357.916 340.424)" stroke-width="1" stroke="#626c84" stroke-linecap="round" stroke-linejoin="round" fill="none"/>
    <rect id="Rectangle_121" data-name="Rectangle 121" width="26" height="14" rx="1" transform="translate(379.554 340.424)" stroke-width="1" stroke="#626c84" stroke-linecap="round" stroke-linejoin="round" fill="none"/>
    <rect id="Rectangle_122" data-name="Rectangle 122" width="14" height="14" rx="1" transform="translate(216.347 320.823)" stroke-width="1" stroke="#626c84" stroke-linecap="round" stroke-linejoin="round" fill="none"/>
    <rect id="Rectangle_123" data-name="Rectangle 123" width="14" height="14" rx="1" transform="translate(194.446 320.823)" stroke-width="1" stroke="#626c84" stroke-linecap="round" stroke-linejoin="round" fill="none"/>
    <rect id="Rectangle_124" data-name="Rectangle 124" width="14" height="14" rx="1" transform="translate(238.248 320.823)" stroke-width="1" stroke="#626c84" stroke-linecap="round" stroke-linejoin="round" fill="none"/>
    <rect id="Rectangle_125" data-name="Rectangle 125" width="14" height="14" rx="1" transform="translate(260.149 320.823)" stroke-width="1" stroke="#626c84" stroke-linecap="round" stroke-linejoin="round" fill="none"/>
    <rect id="Rectangle_126" data-name="Rectangle 126" width="14" height="14" rx="1" transform="translate(282.05 320.823)" stroke-width="1" stroke="#626c84" stroke-linecap="round" stroke-linejoin="round" fill="none"/>
    <rect id="Rectangle_127" data-name="Rectangle 127" width="14" height="14" rx="1" transform="translate(303.95 320.823)" stroke-width="1" stroke="#626c84" stroke-linecap="round" stroke-linejoin="round" fill="none"/>
    <rect id="Rectangle_128" data-name="Rectangle 128" width="14" height="14" rx="1" transform="translate(325.851 320.823)" stroke-width="1" stroke="#626c84" stroke-linecap="round" stroke-linejoin="round" fill="none"/>
    <rect id="Rectangle_129" data-name="Rectangle 129" width="14" height="14" rx="1" transform="translate(347.752 320.823)" stroke-width="1" stroke="#626c84" stroke-linecap="round" stroke-linejoin="round" fill="none"/>
    <rect id="Rectangle_130" data-name="Rectangle 130" width="14" height="14" rx="1" transform="translate(369.653 320.823)" stroke-width="1" stroke="#626c84" stroke-linecap="round" stroke-linejoin="round" fill="none"/>
    <rect id="Rectangle_131" data-name="Rectangle 131" width="14" height="14" rx="1" transform="translate(391.554 320.823)" stroke-width="1" stroke="#626c84" stroke-linecap="round" stroke-linejoin="round" fill="none"/>
    <rect id="Rectangle_132" data-name="Rectangle 132" width="14" height="14" rx="1" transform="translate(216.084 380.823)" fill="#626c84"/>
    <rect id="Rectangle_133" data-name="Rectangle 133" width="14" height="14" rx="1" transform="translate(194.446 380.823)" fill="#626c84"/>
    <rect id="Rectangle_134" data-name="Rectangle 134" width="100.554" height="14" rx="1" transform="translate(237.723 380.823)" fill="#626c84"/>
    <rect id="Rectangle_135" data-name="Rectangle 135" width="14" height="14" rx="1" transform="translate(345.916 380.823)" fill="#626c84"/>
    <rect id="Rectangle_136" data-name="Rectangle 136" width="10" height="6.125" rx="1" transform="translate(381.554 388.698)" fill="#626c84"/>
    <rect id="Rectangle_137" data-name="Rectangle 137" width="10" height="6.125" rx="1" transform="translate(381.554 380.823)" fill="#626c84"/>
    <rect id="Rectangle_138" data-name="Rectangle 138" width="10" height="6.125" rx="1" transform="translate(395.554 388.698)" fill="#626c84"/>
    <rect id="Rectangle_139" data-name="Rectangle 139" width="10" height="6.125" rx="1" transform="translate(367.554 388.698)" fill="#626c84"/>
    <rect id="Rectangle_140" data-name="Rectangle 140" width="33.639" height="14" rx="1" transform="translate(194.446 360.904)" fill="#626c84"/>
    <rect id="Rectangle_141" data-name="Rectangle 141" width="14" height="14" rx="1" transform="translate(235.904 360.904)" fill="#626c84"/>
    <rect id="Rectangle_142" data-name="Rectangle 142" width="14" height="14" rx="1" transform="translate(257.542 360.904)" fill="#626c84"/>
    <rect id="Rectangle_143" data-name="Rectangle 143" width="14" height="14" rx="1" transform="translate(279.181 360.904)" fill="#626c84"/>
    <rect id="Rectangle_144" data-name="Rectangle 144" width="14" height="14" rx="1" transform="translate(300.819 360.904)" fill="#626c84"/>
    <rect id="Rectangle_145" data-name="Rectangle 145" width="14" height="14" rx="1" transform="translate(322.458 360.904)" fill="#626c84"/>
    <rect id="Rectangle_146" data-name="Rectangle 146" width="14" height="14" rx="1" transform="translate(344.096 360.904)" fill="#626c84"/>
    <rect id="Rectangle_147" data-name="Rectangle 147" width="38" height="14" rx="1" transform="translate(367.554 360.904)" fill="#626c84"/>
    <rect id="Rectangle_148" data-name="Rectangle 148" width="14" height="14" rx="1" transform="translate(228.084 340.424)" fill="#626c84"/>
    <rect id="Rectangle_149" data-name="Rectangle 149" width="26" height="14" rx="1" transform="translate(194.446 340.424)" fill="#626c84"/>
    <rect id="Rectangle_150" data-name="Rectangle 150" width="14" height="14" rx="1" transform="translate(249.723 340.424)" fill="#626c84"/>
    <rect id="Rectangle_151" data-name="Rectangle 151" width="14" height="14" rx="1" transform="translate(271.361 340.424)" fill="#626c84"/>
    <rect id="Rectangle_152" data-name="Rectangle 152" width="14" height="14" rx="1" transform="translate(293 340.424)" fill="#626c84"/>
    <rect id="Rectangle_153" data-name="Rectangle 153" width="14" height="14" rx="1" transform="translate(314.639 340.424)" fill="#626c84"/>
    <rect id="Rectangle_154" data-name="Rectangle 154" width="14" height="14" rx="1" transform="translate(336.277 340.424)" fill="#626c84"/>
    <rect id="Rectangle_155" data-name="Rectangle 155" width="14" height="14" rx="1" transform="translate(357.916 340.424)" fill="#626c84"/>
    <rect id="Rectangle_156" data-name="Rectangle 156" width="26" height="14" rx="1" transform="translate(379.554 340.424)" fill="#626c84"/>
    <rect id="Rectangle_157" data-name="Rectangle 157" width="14" height="14" rx="1" transform="translate(216.347 320.823)" fill="#626c84"/>
    <rect id="Rectangle_158" data-name="Rectangle 158" width="14" height="14" rx="1" transform="translate(194.446 320.823)" fill="#626c84"/>
    <rect id="Rectangle_159" data-name="Rectangle 159" width="14" height="14" rx="1" transform="translate(238.248 320.823)" fill="#626c84"/>
    <rect id="Rectangle_160" data-name="Rectangle 160" width="14" height="14" rx="1" transform="translate(260.149 320.823)" fill="#626c84"/>
    <rect id="Rectangle_161" data-name="Rectangle 161" width="14" height="14" rx="1" transform="translate(282.05 320.823)" fill="#626c84"/>
    <rect id="Rectangle_162" data-name="Rectangle 162" width="14" height="14" rx="1" transform="translate(303.95 320.823)" fill="#626c84"/>
    <rect id="Rectangle_163" data-name="Rectangle 163" width="14" height="14" rx="1" transform="translate(325.851 320.823)" fill="#626c84"/>
    <rect id="Rectangle_164" data-name="Rectangle 164" width="14" height="14" rx="1" transform="translate(347.752 320.823)" fill="#626c84"/>
    <rect id="Rectangle_165" data-name="Rectangle 165" width="14" height="14" rx="1" transform="translate(369.653 320.823)" fill="#626c84"/>
    <rect id="Rectangle_166" data-name="Rectangle 166" width="14" height="14" rx="1" transform="translate(391.554 320.823)" fill="#626c84"/>
    <path id="Path_20" data-name="Path 20" d="M215,288.92H385v13.446a4,4,0,0,1-4,4H219a4,4,0,0,1-4-4Z" fill="#626c84"/>
    <rect id="Rectangle_167" data-name="Rectangle 167" width="170" height="2" transform="translate(215 288.92)" fill="#fff" opacity="0.12"/>
    <path id="Path_21" data-name="Path 21" d="M381,302.365H219a4,4,0,0,1-4-4v4a4,4,0,0,0,4,4H381a4,4,0,0,0,4-4v-4A4,4,0,0,1,381,302.365Z" fill="#626c84" opacity="0.25"/>
    <path id="Path_22" data-name="Path 22" d="M215,288.92H385v13.446a4,4,0,0,1-4,4H219a4,4,0,0,1-4-4Z" fill="none" stroke="#46505c" stroke-linecap="round" stroke-linejoin="round" stroke-width="2"/>
    <rect id="Rectangle_168" data-name="Rectangle 168" width="74" height="51" rx="2" transform="translate(263 408.323)" fill="#e6f3ff"/>
    <rect id="Rectangle_169" data-name="Rectangle 169" width="74" height="51" rx="2" transform="translate(263 408.323)" stroke-width="1" stroke="#626c84" stroke-linecap="round" stroke-linejoin="round" fill="none"/>
    <circle id="Ellipse_29" data-name="Ellipse 29" cx="3" cy="3" r="3" transform="translate(297 141.052)" fill="#fff" opacity="0.52"/>
    <circle id="Ellipse_30" data-name="Ellipse 30" cx="3" cy="3" r="3" transform="translate(297 141.052)" stroke-width="1" stroke="#46505c" stroke-linecap="round" stroke-linejoin="round" fill="none"/>
    <rect id="Rectangle_170" data-name="Rectangle 170" width="14" height="2" rx="1" transform="translate(349.36 165.129)" fill="#fff"/>
    <rect id="Rectangle_171" data-name="Rectangle 171" width="14" height="2" rx="1" transform="translate(375.334 165.129)" fill="#fff"/>
    <rect id="Rectangle_172" data-name="Rectangle 172" width="14" height="2" rx="1" transform="translate(323.387 165.129)" fill="#fff"/>
    <circle id="Ellipse_31" data-name="Ellipse 31" cx="4.837" cy="4.837" r="4.837" transform="translate(202.396 161.813)" fill="#fff"/>
    <g id="Group_6" data-name="Group 6" opacity="0.72">
      <rect id="Rectangle_173" data-name="Rectangle 173" width="101.234" height="3.645" transform="translate(249.324 219.611)" fill="#fff"/>
      <rect id="Rectangle_174" data-name="Rectangle 174" width="75.629" height="3.698" transform="translate(262.127 207.513)" fill="#fff"/>
    </g>
    <rect id="Rectangle_175" data-name="Rectangle 175" width="39.773" height="10.962" rx="5.481" transform="translate(283.113 247.945)" fill="none" stroke="#fff" stroke-miterlimit="10" stroke-width="1"/>
    <path id="Path_23" data-name="Path 23" d="M199.191,600.4Z" fill="#331f5b" opacity="0.15"/>
    <path id="Path_24" data-name="Path 24" d="M199.191,600.4Z" fill="#331f5b" opacity="0.15"/>
  </g>
</svg>
